<svg xmlns="http://www.w3.org/2000/svg" width="310.02" height="72.28" viewBox="0 0 310.02 72.28">
  <g id="brno_logo" transform="translate(0 839.406)">
    <g id="q2">
      <g id="Group_48" data-name="Group 48" transform="translate(-18.122 -14.268)">
        <path id="path49" d="M64.3-752.858h2.41v-72.28H64.3Z" fill="#da1e26"/>
        <path id="path51" d="M138.992-752.858h6.03v-72.28h-6.03Z" fill="#da1e26"/>
        <path id="path53" d="M217.312-752.858h14.46v-72.28h-14.46Z" fill="#da1e26"/>
        <path id="path55" d="M304.052-752.858h24.09v-72.28h-24.09Z" fill="#da1e26"/>
        <path id="path57" d="M267.9-796.708c-4.45,0-5.36,4.11-5.36,7.81,0,3.49.91,7.63,5.36,7.63s5.37-4.14,5.37-7.63c0-3.7-.92-7.81-5.37-7.81m-12.23,7.72c0-7.79,4.42-12.31,12.23-12.31s12.24,4.52,12.24,12.31-4.42,12.29-12.24,12.29-12.23-4.51-12.23-12.29" fill="#da1e26"/>
        <path id="path59" d="M169.662-800.808h9.16l7.91,17.59.08-.06v-17.53h5.87v23.61h-9.06l-8-18.08h-.07v18.08h-5.89Z" fill="#da1e26"/>
        <path id="path61" d="M101.682-790.8c2.09,0,4.12-.29,4.12-2.72s-2.03-2.71-4.12-2.71h-2.55v5.43Zm-2.55,13.6h-6.55v-23.61h10.94c3.99,0,9.15,1.08,9.15,6.09,0,3.53-2.71,5.39-6.02,5.78v.14c4.19.09,4.96,2.22,5.4,5.86a28.494,28.494,0,0,0,1.07,5.74h-7.09a43.936,43.936,0,0,1-.72-5c-.25-2.85-.39-4.03-3.72-4.03h-2.46Z" fill="#da1e26"/>
        <path id="path63" d="M28.482-781.768a2.566,2.566,0,0,0,2.85-2.45,2.583,2.583,0,0,0-2.39-2.66h-4.27v5.11Zm-3.81-9.65,3.32-.04c1.76,0,2.91-.68,2.91-2.48a2.43,2.43,0,0,0-2.68-2.29h-3.55Zm-6.55,14.22v-23.61h11.31c4.44.04,8.17,2.02,8.17,6.18,0,2.91-2.45,4.67-5.09,5.16v.08c3.13.42,5.69,2.42,5.69,5.79,0,6.86-8.77,6.4-9,6.4Z" fill="#da1e26"/>
      </g>
    </g>
  </g>
</svg>
