<svg xmlns="http://www.w3.org/2000/svg" width="163.484" height="106.821" viewBox="0 0 163.484 106.821">
  <g id="cb_logo" transform="translate(0.017 0.01)">
    <g id="Group_61" data-name="Group 61" transform="translate(-0.017 -0.01)">
      <path id="Path_452" data-name="Path 452" d="M91.671,65.64c-.122.937-.245,1.868-.373,2.805-.011.048-.016.09-.027.138-.032.16-.059.314-.09.474-.005.053-.016.106-.021.16a42.974,42.974,0,0,1-2.454,8.623A46.006,46.006,0,0,1,56.8,105.55c-.474.117-.953.213-1.426.325-.048.011-.1.016-.138.027l-2.927.5c-.048.005-.1.016-.138.021l-.756.1c-.085.011-.17.016-.255.027-.245.027-.484.059-.729.085l-.415.027a51.363,51.363,0,0,1-9.826-.165c-.128-.016-.25-.048-.373-.075-.09-.011-.186-.016-.277-.027-.335-.048-.671-.09-1.075-.149V90.966c-.043-.021-.085-.037-.128-.059-3.891,3.886-7.776,7.766-11.71,11.7-.82-.415-1.639-.8-2.438-1.24A45.882,45.882,0,0,1,4.809,81.412a43.558,43.558,0,0,1-3.486-9.49c-.011-.053-.021-.112-.037-.165-.122-.554-.245-1.1-.367-1.655-.011-.053-.016-.106-.027-.16-.032-.16-.064-.319-.1-.474-.011-.048-.016-.09-.027-.138C.642,68.568.519,67.8.4,67.04c-.005-.048-.011-.09-.016-.138-.032-.255-.059-.506-.09-.761-.011-.085-.016-.17-.027-.255-.032-.3-.064-.6-.1-.9-.011-.165-.021-.335-.032-.5a43.146,43.146,0,0,1,.24-9.448c.011-.085.016-.17.027-.255l.367-2.3c.011-.059.016-.117.027-.17.032-.154.064-.3.1-.458.011-.048.021-.1.032-.138.33-1.309.66-2.613.99-3.923l.048-.192A46.032,46.032,0,0,1,26.047,19.54c.17-.085.346-.154.57-.255.165.154.335.309.5.468q5.325,5.317,10.651,10.64c.2.2.4.383.6.575l.021.043a3.315,3.315,0,0,1-.538.255A27.957,27.957,0,0,0,32.2,33.433Q17.972,40.938,15.439,56.826c-.005.048-.016.09-.021.138-.032.25-.059.506-.09.756-.005.085-.016.17-.021.255a32.387,32.387,0,0,0,.112,6.85l.032.287c.16.878.325,1.762.484,2.64l.032.176c.2.719.367,1.442.6,2.145A30.57,30.57,0,0,0,35.09,89.683c1.059.42,2.166.719,3.332,1.1V31.83c0-.271-.032-.548-.053-.82a.054.054,0,0,0,.027-.059c.011-.255.027-.511.027-.761V.756c0-.255.005-.511.011-.766H53.5c-.011.213-.032.42-.032.633V30.83c.053.016.075.021.1.027s.048.016.059,0c3.875-3.848,7.75-7.7,11.662-11.588.655.325,1.3.623,1.937.958A45.831,45.831,0,0,1,88.344,43.168a40.475,40.475,0,0,1,2.289,7.015c.011.048.021.1.032.138.027.112.059.224.085.335.011.053.021.112.037.165.122.6.24,1.187.362,1.783.005.048.016.09.021.138.165,1.15.33,2.294.5,3.444l.027.378a42.63,42.63,0,0,1,.005,8.681c-.011.128-.021.25-.032.378ZM76.629,63.474c.005-.085.011-.17.021-.255q0-2.236.011-4.466c-.011-.165-.021-.335-.032-.5-.032-.3-.069-.6-.1-.894,0-.048-.011-.09-.011-.138q-.439-2.212-.873-4.423c-.016-.064-.027-.128-.043-.2-.362-1.043-.665-2.108-1.1-3.124a30.554,30.554,0,0,0-20.45-18.2c-.17-.048-.351-.069-.575-.117V90.013c0,.229.043.458.064.692h.005c.293-.075.585-.144.878-.218.064-.016.133-.027.2-.043.08-.032.16-.064.24-.09a30.07,30.07,0,0,0,12.594-7.446,30.452,30.452,0,0,0,9.176-19.439Z" transform="translate(0.017 0.01)" fill="#e50000"/>
      <path id="Path_453" data-name="Path 453" d="M194.13,171.549V154.91h16.676v16.639Z" transform="translate(-90.791 -72.45)" fill="#ffb200"/>
      <path id="Path_454" data-name="Path 454" d="M194.16,116.645H198.1a4.183,4.183,0,0,1,.633.059,1.834,1.834,0,0,1,1.735,1.746,23.364,23.364,0,0,1,.016,2.864,1.362,1.362,0,0,1-.782,1.166c-.128.069-.25.144-.442.255.176.106.287.186.41.245a1.8,1.8,0,0,1,1.1,1.666c.032,1.038.048,2.087-.005,3.124a2.34,2.34,0,0,1-1.921,2.246,3.319,3.319,0,0,1-.756.106c-1.293.011-2.587,0-3.918,0V116.64Zm1.762,11.912c.7,0,1.379.037,2.049-.011a1.178,1.178,0,0,0,1.192-1.182,22.539,22.539,0,0,0-.005-2.544,1.087,1.087,0,0,0-1.081-1.134c-.708-.069-1.426-.016-2.161-.016v4.886Zm.005-10.315v3.848c.7,0,1.373.037,2.044-.011a.928.928,0,0,0,.931-1.011c.027-.591.027-1.187,0-1.783a.953.953,0,0,0-.979-1.033c-.649-.037-1.3-.011-1.991-.011Z" transform="translate(-90.805 -54.55)" fill="#030303"/>
      <path id="Path_455" data-name="Path 455" d="M200.372,85.59h-1.607c0-.5.005-.963,0-1.426a1.447,1.447,0,0,0-2.225-1.315,1.6,1.6,0,0,0-.58.708,1.835,1.835,0,0,0-.085.751v7.718a1.515,1.515,0,0,0,2.379,1.373,1.159,1.159,0,0,0,.612-1.112V90.162h1.623a13.969,13.969,0,0,1-.133,3.172,2.211,2.211,0,0,1-1.565,1.549,4.708,4.708,0,0,1-3.013-.027,2.208,2.208,0,0,1-1.533-1.73,6.508,6.508,0,0,1-.133-1.325q-.016-3.665,0-7.335a6.559,6.559,0,0,1,.085-1.075,2.368,2.368,0,0,1,2.017-2.1,4.828,4.828,0,0,1,2.4.064,2.34,2.34,0,0,1,1.767,2.3c.021.633,0,1.267,0,1.927Z" transform="translate(-90.779 -37.962)" fill="#030303"/>
      <path id="Path_456" data-name="Path 456" d="M228.6,130.181h-1.379c-.021-.2-.043-.383-.075-.639a4.379,4.379,0,0,1-.431.266,5.131,5.131,0,0,1-1.15.511,1.909,1.909,0,0,1-2.342-1.522,3.523,3.523,0,0,1-.1-.82c-.011-1.719,0-3.444,0-5.163a2.59,2.59,0,0,1,.4-1.581,2.141,2.141,0,0,1,3.05-.468c.149.112.287.229.506.41V116.73h1.528v13.451Zm-3.944-4.828h.011c0,.889-.021,1.783.005,2.672a1.052,1.052,0,0,0,.926,1.118,1.185,1.185,0,0,0,1.347-.82,2.226,2.226,0,0,0,.138-.745c.011-1.379.027-2.762-.005-4.141a4.208,4.208,0,0,0-.261-1.3,1.039,1.039,0,0,0-1.128-.655.979.979,0,0,0-.937.814,3.522,3.522,0,0,0-.1.82c-.011.745,0,1.485,0,2.23Z" transform="translate(-104.351 -54.593)" fill="#030303"/>
      <path id="Path_457" data-name="Path 457" d="M233.25,81.6h1.474v7.851c.053.021.106.037.16.059q1.333-2.06,2.661-4.125h1.613c-.852,1.3-1.661,2.55-2.475,3.8.846,1.943,1.677,3.864,2.544,5.855H237.62c-.623-1.4-1.261-2.826-1.927-4.327a3,3,0,0,0-.953,2.315,15.769,15.769,0,0,1,.016,2.012h-1.5V81.59Z" transform="translate(-109.089 -38.157)" fill="#030303"/>
      <path id="Path_458" data-name="Path 458" d="M260.431,128.528c0,.852.005,1.7,0,2.55a2.176,2.176,0,0,1-2.156,2.427,4.275,4.275,0,0,1-.825.016A2.218,2.218,0,0,1,255.125,131c-.005-1.661-.011-3.316,0-4.977a2.183,2.183,0,0,1,2.283-2.491,4.819,4.819,0,0,1,1.512.144,1.843,1.843,0,0,1,1.432,1.549,5.34,5.34,0,0,1,.08.82c.011.83,0,1.661,0,2.486Zm-3.737-.043c0,.91-.016,1.826,0,2.736.016.74.367,1.1,1.027,1.112a1.006,1.006,0,0,0,1.139-1.017,4.081,4.081,0,0,0,.027-.57v-4.455a3.568,3.568,0,0,0-.069-.756.95.95,0,0,0-1.033-.836c-.7-.011-1.075.357-1.1,1.112-.021.889,0,1.783,0,2.672Z" transform="translate(-119.317 -57.768)" fill="#030303"/>
      <path id="Path_459" data-name="Path 459" d="M247.545,93.635c0,.91-.021,1.719.005,2.523a.986.986,0,0,0,1,1.091.929.929,0,0,0,1.1-.889c.053-.373.059-.756.085-1.171h1.458a12.1,12.1,0,0,1-.069,1.331,2.115,2.115,0,0,1-2.129,1.9,6.053,6.053,0,0,1-.761,0A2.189,2.189,0,0,1,246,96.179c-.064-1.826-.069-3.651,0-5.477A2.216,2.216,0,0,1,248.4,88.44h.383a2.192,2.192,0,0,1,2.374,2.214c.059.974.011,1.948.011,2.991H247.55Zm2.124-1.224c0-.665.037-1.267-.011-1.852A.972.972,0,0,0,248.6,89.6a.92.92,0,0,0-1.022.916c-.053.623-.011,1.256-.011,1.9h2.1Z" transform="translate(-115.027 -41.361)" fill="#030303"/>
      <path id="Path_460" data-name="Path 460" d="M213.78,93.651h-3.588c0,.931-.048,1.82.016,2.7a.925.925,0,0,0,1.1.889.915.915,0,0,0,.958-.974c.027-.357,0-.713,0-1.07a1.933,1.933,0,0,1,.325-.059h1.075c.5,2.283-.83,3.337-2.353,3.284a5.094,5.094,0,0,1-1.134-.149,2.017,2.017,0,0,1-1.522-1.7,1.59,1.59,0,0,1-.043-.314c0-1.89-.043-3.784.016-5.674a2.131,2.131,0,0,1,2.118-2.14q.192-.016.383-.016a2.284,2.284,0,0,1,2.64,2.592v2.635Zm-1.5-1.235c0-.676.027-1.293-.011-1.906a.953.953,0,0,0-.9-.916.969.969,0,0,0-1.118.633,6.133,6.133,0,0,0-.075,2.182h2.1Z" transform="translate(-97.56 -41.355)" fill="#030303"/>
      <path id="Path_461" data-name="Path 461" d="M209.95,131.761V123.83h1.5c.011.192.027.373.027.559v6.435a3.806,3.806,0,0,0,.043.7,1.034,1.034,0,0,0,.868.9,1.128,1.128,0,0,0,1.214-.633,3.046,3.046,0,0,0,.2-1.112c.016-2.06.011-4.12.011-6.18v-.665h1.506V133.5h-1.448c-.032-.186-.069-.383-.112-.628-.17.122-.3.218-.431.319A2,2,0,0,1,210,132.022c-.011-.064-.032-.122-.048-.186a.313.313,0,0,0,.032-.021.191.191,0,0,0-.037-.053Z" transform="translate(-98.191 -57.913)" fill="#030303"/>
      <path id="Path_462" data-name="Path 462" d="M302.6,130.282c0,.506.037.99-.011,1.469a2.045,2.045,0,0,1-1.554,1.677,3.513,3.513,0,0,1-1.948-.043,2.057,2.057,0,0,1-1.57-2.017c-.048-1.89-.048-3.784,0-5.669a2.089,2.089,0,0,1,1.921-2.113,4.4,4.4,0,0,1,1.267-.027,2.032,2.032,0,0,1,1.9,2.22v2.959h-3.534c0,.931-.043,1.815.016,2.693a.959.959,0,0,0,1.1.91.926.926,0,0,0,.979-.958c.043-.351.037-.713.059-1.1H302.6Zm-1.421-2.752c0-.676.037-1.288-.011-1.895a.96.96,0,0,0-1.022-.931.906.906,0,0,0-1.049.809,19.574,19.574,0,0,0-.016,2.017h2.092Z" transform="translate(-139.132 -57.771)" fill="#030303"/>
      <path id="Path_463" data-name="Path 463" d="M241.656,128.716h-3.588c0,.937-.037,1.82.011,2.7a.923.923,0,0,0,1.038.9.891.891,0,0,0,1.017-.836c.069-.394.075-.793.112-1.261h1.315a2.419,2.419,0,0,1-2.539,3.295,2.35,2.35,0,0,1-2.539-2.619c-.011-1.591-.016-3.188.005-4.78a3.9,3.9,0,0,1,.186-1.187,1.9,1.9,0,0,1,1.267-1.251,3.566,3.566,0,0,1,2.2-.059,2.092,2.092,0,0,1,1.506,2.065c.037.974.005,1.953.005,3.029Zm-3.6-1.224h2.113a19.05,19.05,0,0,0-.016-1.916.962.962,0,0,0-1.107-.894.936.936,0,0,0-.985.953c-.043.607-.011,1.214-.011,1.858Z" transform="translate(-110.596 -57.748)" fill="#030303"/>
      <path id="Path_464" data-name="Path 464" d="M225.553,91.454h-1.368c0-.3.021-.6,0-.884a.926.926,0,0,0-1.022-.974.962.962,0,0,0-.894,1.107,1.641,1.641,0,0,0,.676,1.246c.628.543,1.261,1.075,1.895,1.613a3.063,3.063,0,0,1,.751,3.6c-.452.947-1.512,1.384-2.975,1.224a2.082,2.082,0,0,1-2.012-1.735,14.909,14.909,0,0,1-.133-1.735h1.437c0,.33-.016.681,0,1.033a1.214,1.214,0,0,0,1.48,1.256.87.87,0,0,0,.82-.687,1.714,1.714,0,0,0-.506-1.858q-1.006-.886-2.007-1.778a2.765,2.765,0,0,1-.83-2.959,1.862,1.862,0,0,1,1.246-1.347,3.459,3.459,0,0,1,2.012-.075,1.8,1.8,0,0,1,1.421,1.618,10.048,10.048,0,0,1,.011,1.336Z" transform="translate(-103.111 -41.335)" fill="#030303"/>
      <path id="Path_465" data-name="Path 465" d="M290.745,127.055h-1.458c0-.463.027-.9-.005-1.341a.989.989,0,0,0-1.24-1.011.875.875,0,0,0-.846.809,4.536,4.536,0,0,0-.037.761v4.53c0,.17-.005.341.011.511.069.665.383.985,1.006,1.011a.948.948,0,0,0,1.128-.931,6.023,6.023,0,0,0,.037-.761c.005-.229,0-.458,0-.719h1.426c-.043.681-.075,1.352-.144,2.017a1.379,1.379,0,0,1-.245.585,2.523,2.523,0,0,1-2.715.958,2.109,2.109,0,0,1-1.985-1.7,4.11,4.11,0,0,1-.085-.884c-.011-1.6-.011-3.188,0-4.785a3.775,3.775,0,0,1,.09-.884,2,2,0,0,1,1.437-1.565,3.6,3.6,0,0,1,1.826-.1,2.021,2.021,0,0,1,1.709,1.746c.085.559.069,1.134.1,1.751Z" transform="translate(-133.567 -57.753)" fill="#030303"/>
      <path id="Path_466" data-name="Path 466" d="M269.151,127.753l.49,3.375a1.4,1.4,0,0,1,.149.011l.383-2.363a.156.156,0,0,0,.048-.011c-.011-.021-.021-.043-.032-.069.261-1.613.522-3.22.788-4.865h1.554c-.325,2.028-.82,4.013-1.2,6.015a.1.1,0,0,0-.037.011c.011.021.016.043.027.064l-.756,3.572h-1.794c-.617-3.2-1.23-6.409-1.858-9.661h1.661c.192,1.288.383,2.566.57,3.843-.016,0-.027.011-.043.016a.583.583,0,0,0,.053.059Z" transform="translate(-124.832 -57.913)" fill="#030303"/>
      <path id="Path_467" data-name="Path 467" d="M246.02,136.656v-1.23c.266,0,.5.011.724,0,.607-.032.846-.24.926-.836a7.1,7.1,0,0,0,.059-.953V123.85h1.533v9.762a8.572,8.572,0,0,1-.106,1.331,1.8,1.8,0,0,1-1.576,1.607,15.447,15.447,0,0,1-1.56.112Z" transform="translate(-115.061 -57.923)" fill="#030303"/>
      <path id="Path_468" data-name="Path 468" d="M281.185,133.474H279.7v-9.687c.154-.011.3-.027.436-.027h1.043v9.714Z" transform="translate(-130.815 -57.881)" fill="#030303"/>
      <path id="Path_469" data-name="Path 469" d="M195.06,74.432c.617,0,1.081-.027,1.538.011a.829.829,0,0,1,.458.282c.245.255.463.538.75.884a4.213,4.213,0,0,0,.623-.585,1.352,1.352,0,0,1,1.426-.591c.122.016.25.011.5.027-.271.309-.484.554-.7.788-.271.3-.57.575-.814.894a1.287,1.287,0,0,1-1.2.532,1.206,1.206,0,0,1-.985-.436c-.479-.585-1-1.128-1.6-1.8Z" transform="translate(-91.226 -34.799)" fill="#030303"/>
      <path id="Path_470" data-name="Path 470" d="M236.575,115.478c.6,0,1.043-.021,1.474.011a.727.727,0,0,1,.41.24c.245.261.458.554.729.889a3.673,3.673,0,0,0,.5-.5,1.613,1.613,0,0,1,1.922-.575c-.628.671-1.208,1.3-1.81,1.911a1.908,1.908,0,0,1-1.453-.011c-.57-.612-1.123-1.24-1.778-1.969Z" transform="translate(-110.641 -54)" fill="#030303"/>
      <path id="Path_471" data-name="Path 471" d="M249.34,82.544c.41-.82.745-1.474,1.075-2.134h2.2a22,22,0,0,1-1.916,1.975c-.266.218-.8.106-1.357.165Z" transform="translate(-116.614 -37.605)" fill="#030303"/>
      <path id="Path_472" data-name="Path 472" d="M281.176,118.647h-1.5V116.72h1.5Z" transform="translate(-130.805 -54.588)" fill="#030303"/>
      <path id="Path_473" data-name="Path 473" d="M250.768,118.646H249.32V116.73h1.448Z" transform="translate(-116.605 -54.593)" fill="#030303"/>
      <path id="Path_474" data-name="Path 474" d="M.29,121.19c.011.165.021.335.032.5C.311,121.525.3,121.355.29,121.19Z" transform="translate(-0.127 -56.679)" fill="#ffb200"/>
      <path id="Path_475" data-name="Path 475" d="M172.267,105.978c-.011-.128-.016-.25-.027-.378C172.251,105.728,172.256,105.85,172.267,105.978Z" transform="translate(-80.552 -49.387)" fill="#ffb200"/>
      <path id="Path_476" data-name="Path 476" d="M93.96,200.367l.415-.027Z" transform="translate(-43.939 -93.699)" fill="#ffb200"/>
      <path id="Path_477" data-name="Path 477" d="M172.24,123l.032-.378Z" transform="translate(-80.552 -57.347)" fill="#ffb200"/>
      <path id="Path_478" data-name="Path 478" d="M96.11,200.157c.085-.011.17-.016.255-.027C96.28,200.141,96.2,200.146,96.11,200.157Z" transform="translate(-44.944 -93.601)" fill="#ffb200"/>
      <path id="Path_479" data-name="Path 479" d="M74.28,199.88c.09.011.186.016.277.027C74.466,199.9,74.37,199.891,74.28,199.88Z" transform="translate(-34.734 -93.484)" fill="#ffb200"/>
      <path id="Path_480" data-name="Path 480" d="M.53,123.81c.011.085.016.17.027.255C.546,123.98.541,123.9.53,123.81Z" transform="translate(-0.239 -57.904)" fill="#ffb200"/>
      <path id="Path_481" data-name="Path 481" d="M.757,102.96c-.011.085-.016.17-.027.255C.741,103.13.746,103.045.757,102.96Z" transform="translate(-0.332 -48.152)" fill="#ffb200"/>
      <path id="Path_482" data-name="Path 482" d="M1.7,131.43c.011.053.016.106.027.16C1.716,131.536,1.711,131.483,1.7,131.43Z" transform="translate(-0.786 -61.468)" fill="#ffb200"/>
      <path id="Path_483" data-name="Path 483" d="M98.01,199.921c.048-.005.1-.016.138-.021C98.1,199.905,98.053,199.916,98.01,199.921Z" transform="translate(-45.833 -93.493)" fill="#ffb200"/>
      <path id="Path_484" data-name="Path 484" d="M1.5,98.32c-.011.059-.016.117-.027.17C1.481,98.432,1.486,98.373,1.5,98.32Z" transform="translate(-0.679 -45.982)" fill="#ffb200"/>
      <path id="Path_485" data-name="Path 485" d="M171.49,128.738c.011-.048.016-.09.027-.138C171.506,128.648,171.5,128.69,171.49,128.738Z" transform="translate(-80.202 -60.144)" fill="#ffb200"/>
      <path id="Path_486" data-name="Path 486" d="M171.28,129.91c.005-.053.016-.106.021-.16C171.3,129.8,171.285,129.856,171.28,129.91Z" transform="translate(-80.103 -60.682)" fill="#ffb200"/>
      <path id="Path_487" data-name="Path 487" d="M1.732,97.19c-.011.048-.021.1-.032.138C1.711,97.28,1.721,97.233,1.732,97.19Z" transform="translate(-0.786 -45.453)" fill="#ffb200"/>
      <path id="Path_488" data-name="Path 488" d="M171.291,99.008c-.005-.048-.016-.09-.021-.138C171.275,98.918,171.286,98.96,171.291,99.008Z" transform="translate(-80.099 -46.239)" fill="#ffb200"/>
      <path id="Path_489" data-name="Path 489" d="M271.073,131.135s-.037-.043-.053-.059c.016,0,.027-.011.043-.016l.059.059-.048.016Z" transform="translate(-126.755 -61.295)" fill="#ffb200"/>
      <path id="Path_490" data-name="Path 490" d="M.75,125.72c.005.048.011.09.016.138C.761,125.81.755,125.768.75,125.72Z" transform="translate(-0.342 -58.797)" fill="#ffb200"/>
      <path id="Path_491" data-name="Path 491" d="M273.013,132.97s.021.043.032.069a.155.155,0,0,0-.048.011c-.011-.021-.027-.043-.037-.069A.235.235,0,0,0,273.013,132.97Z" transform="translate(-127.662 -62.188)" fill="#ffb200"/>
      <path id="Path_492" data-name="Path 492" d="M2.44,134.84c.011.053.021.112.037.165C2.467,134.952,2.456,134.893,2.44,134.84Z" transform="translate(-1.132 -63.063)" fill="#ffb200"/>
      <path id="Path_493" data-name="Path 493" d="M275.167,135.215s-.016-.043-.027-.064a.1.1,0,0,0,.037-.011.373.373,0,0,0,.053.043Z" transform="translate(-128.682 -63.203)" fill="#ffb200"/>
      <path id="Path_494" data-name="Path 494" d="M170.567,95.385c-.011-.053-.021-.112-.037-.165C170.541,95.273,170.551,95.332,170.567,95.385Z" transform="translate(-79.753 -44.532)" fill="#ffb200"/>
      <path id="Path_495" data-name="Path 495" d="M170.342,94.458c-.011-.048-.021-.1-.032-.138C170.321,94.368,170.331,94.416,170.342,94.458Z" transform="translate(-79.65 -44.111)" fill="#ffb200"/>
      <path id="Path_496" data-name="Path 496" d="M3.658,89.46l-.048.192Z" transform="translate(-1.68 -41.838)" fill="#ffb200"/>
      <path id="Path_497" data-name="Path 497" d="M209.9,138.73l.037.053a.313.313,0,0,1-.032.021l-.064-.032A.557.557,0,0,0,209.9,138.73Z" transform="translate(-98.139 -64.883)" fill="#ffb200"/>
      <path id="Path_498" data-name="Path 498" d="M1.46,130.28l.027.138C1.476,130.37,1.471,130.328,1.46,130.28Z" transform="translate(-0.674 -60.93)" fill="#ffb200"/>
      <path id="Path_499" data-name="Path 499" d="M103.77,198.947c.048-.011.1-.016.138-.027C103.86,198.931,103.813,198.936,103.77,198.947Z" transform="translate(-48.527 -93.035)" fill="#ffb200"/>
      <path id="Path_500" data-name="Path 500" d="M72.121,58.22l-.021-.043V58.14l.043.021c0,.027,0,.048-.027.059h.011Z" transform="translate(-33.714 -27.188)" fill="#ffb200"/>
      <path id="Path_501" data-name="Path 501" d="M144.012,109.94c-.011-.165-.021-.335-.032-.5C143.991,109.6,144,109.775,144.012,109.94Z" transform="translate(-67.334 -51.183)" fill="#ffb200"/>
      <path id="Path_502" data-name="Path 502" d="M143.98,119.035c.005-.085.011-.17.021-.255C144,118.865,143.991,118.95,143.98,119.035Z" transform="translate(-67.334 -55.551)" fill="#ffb200"/>
      <path id="Path_503" data-name="Path 503" d="M28.99,121.82l.032.287Z" transform="translate(-13.55 -56.973)" fill="#ffb200"/>
      <path id="Path_504" data-name="Path 504" d="M28.811,108.47c-.005.085-.016.17-.021.255C28.8,108.64,28.806,108.555,28.811,108.47Z" transform="translate(-13.457 -50.729)" fill="#ffb200"/>
      <path id="Path_505" data-name="Path 505" d="M29.97,127.32,30,127.5Z" transform="translate(-14.009 -59.546)" fill="#ffb200"/>
      <path id="Path_506" data-name="Path 506" d="M102.27,169.973c.064-.016.133-.027.2-.043C102.4,169.946,102.334,169.957,102.27,169.973Z" transform="translate(-47.826 -79.476)" fill="#ffb200"/>
      <path id="Path_507" data-name="Path 507" d="M143.771,107.638c0-.048-.011-.09-.011-.138C143.76,107.548,143.771,107.59,143.771,107.638Z" transform="translate(-67.232 -50.275)" fill="#ffb200"/>
      <path id="Path_508" data-name="Path 508" d="M29.021,106.78c-.005.048-.016.09-.021.138C29.005,106.87,29.016,106.828,29.021,106.78Z" transform="translate(-13.555 -49.939)" fill="#ffb200"/>
      <path id="Path_509" data-name="Path 509" d="M142.083,99.027l-.043-.2C142.056,98.894,142.067,98.958,142.083,99.027Z" transform="translate(-66.427 -46.22)" fill="#ffb200"/>
      <path id="Path_510" data-name="Path 510" d="M100.61,170.4l.011-.021-.005.021Z" transform="translate(-47.049 -79.686)" fill="#ffb200"/>
    </g>
  </g>
</svg>
