<svg id="liberec_logo" xmlns="http://www.w3.org/2000/svg" width="302.961" height="52.521" viewBox="0 0 302.961 52.521">
  <g id="Group_60" data-name="Group 60">
    <path id="Path_443" data-name="Path 443" d="M202.4.02h12.746V16.189a9.07,9.07,0,0,0,1.407-.615c9.2-6.732,20.229-3.246,23.272,7.655a29.826,29.826,0,0,1-1.537,21.339c-3.564,7.493-14.695,11.146-23.048,3.992-.229.959-.427,1.8-.641,2.7H202.4Zm25.513,33.006a46.08,46.08,0,0,0-.709-5.4c-.683-2.637-2.293-4.44-5.206-4.7-2.986-.261-5.56.969-5.951,3.825a44.289,44.289,0,0,0,.1,11.74,4.147,4.147,0,0,0,5.112,3.382,9.621,9.621,0,0,0,5.268-3.356c1.11-1.537,1.032-3.924,1.381-5.5Z" transform="translate(-96.931 -0.01)" fill="#ce4c44"/>
    <path id="Path_444" data-name="Path 444" d="M324.783,46.837H300.433c-.276,3.684,1.094,6.258,3.684,7.2,3.236,1.172,5.992.047,8.629-3.559h11.725a14.047,14.047,0,0,1-3.7,8.395c-5.5,6.462-24.1,7.056-30.036-1.871-4.8-7.212-4.231-21.2,1.8-27.847,5.451-6,17.128-7.472,24.59-2.986,4.956,2.975,7.061,7.738,7.624,13.246.234,2.314.042,4.669.042,7.426Zm-12.292-7.691c.3-3.955-1.568-6.1-5.279-6.232-4.377-.162-6.915,2.116-6.821,6.232Z" transform="translate(-137.697 -11.278)" fill="#ce4c44"/>
    <path id="Path_445" data-name="Path 445" d="M440.988,46.85c.036,3.528.9,6.2,4.049,7.3,3.236,1.136,6.019-.162,8.416-3.575h11.542c-.052,6.06-4.659,11.485-11.62,12.491a45.222,45.222,0,0,1-13.637-.4c-4.716-.782-8.025-4.1-9.781-8.556a25.806,25.806,0,0,1,.328-20.3c3.5-8.082,11.771-11.521,22.214-9.671,7.441,1.318,12.449,7.4,13.074,16.034.156,2.131.021,4.278.021,6.675H440.983Zm12.256-7.66c.3-4.1-1.615-6.222-5.5-6.29-4.163-.073-6.654,2.267-6.576,6.29Z" transform="translate(-204.992 -11.327)" fill="#ce4c44"/>
    <path id="Path_446" data-name="Path 446" d="M94.788,0V39.5h22.746c-.4,4.049-.761,7.717-1.146,11.61H81.12V0H94.788Z" transform="translate(-38.849)" fill="#ce4c44"/>
    <path id="Path_447" data-name="Path 447" d="M547.412,37.471l-12.167,1.193c-.318-.75-.417-1.579-.875-1.954-1.3-1.068-2.767-2.736-4.132-2.7a5.931,5.931,0,0,0-4.45,2.678,16.058,16.058,0,0,0,.026,13.632,5.525,5.525,0,0,0,4.07,2.486c1.428.089,3.08-1.032,4.356-1.991.714-.537.875-1.813,1.36-2.929h12.167c-.412,5.143-2.022,9.489-6.2,12.5-6.446,4.648-18.869,4.007-24.637-1.376-5.492-5.122-6.29-11.844-5.5-18.77C513.093,25.7,528,18.446,540.7,25.877,545,28.394,546.87,32.411,547.412,37.471Z" transform="translate(-244.805 -10.979)" fill="#ce4c44"/>
    <path id="Path_448" data-name="Path 448" d="M384.667,25.429c.078,1.324.151,2.5.224,3.747,6.316-4.6,9.088-5.393,14.059-3.934-.4,3.439-.808,6.941-1.24,10.635-1.98,0-3.866-.13-5.727.026-4.653.386-6.743,2.689-6.785,7.5-.057,6.415-.016,12.829-.016,19.478H372.26V25.429Z" transform="translate(-178.279 -11.771)" fill="#ce4c44"/>
    <path id="Path_449" data-name="Path 449" d="M161.94,26.02h12.751V63.6H161.94Z" transform="translate(-77.555 -12.461)" fill="#ce4c44"/>
    <path id="Path_450" data-name="Path 450" d="M14.69,1.11h2.632c4.789,9.27,9.593,18.556,14.617,28.28-1.245.057-2.027.089-2.913.13C24.731,21.146,20.5,12.913,15.966,4.075c-4.533,8.8-8.8,17.066-13.09,25.4H0C4.956,19.906,9.76,10.63,14.69,1.11Z" transform="translate(0 -0.532)" fill="#ce4c44"/>
    <path id="Path_451" data-name="Path 451" d="M174.665,9.319H161.7V.19h12.965V9.319Z" transform="translate(-77.44 -0.091)" fill="#ce4c44"/>
  </g>
</svg>
