<svg xmlns="http://www.w3.org/2000/svg" width="231.093" height="105.043" viewBox="0 0 231.093 105.043">
  <g id="olomouc_logo" transform="translate(-221.716 -674.661)">
    <g id="g2893" transform="translate(221.716 674.661)">
      <path id="path2895" d="M.074,71.284v21h21v-21h-21Z" transform="translate(-0.074 -29.264)" fill="#ff0c00"/>
      <path id="path2897" d="M.074.074v21h21V42.094H42.091v21H21.077V84.112h-21v21H231.167V.074H.074Z" transform="translate(-0.074 -0.074)" fill="#ff0c00"/>
      <path id="path2899" d="M126.923,88.677c2.774,0,5.389-2.14,5.389-6.367,0-3.329-1.743-6.788-5.442-6.788-3.064,0-5.336,2.4-5.336,6.5C121.534,84.926,122.934,88.677,126.923,88.677ZM126.9,72.325c5.679,0,8.929,4.649,8.929,9.694,0,4.227-2.3,9.907-9.008,9.907-5.494,0-8.875-4.544-8.875-9.775,0-5.468,3.566-9.826,8.955-9.826Z" transform="translate(-48.39 -29.691)" fill="#fff"/>
      <path id="path2901" d="M154,91.781V73.131h3.513V88.611h7.4v3.171H154Z" transform="translate(-63.169 -30.021)" fill="#fff"/>
      <path id="path2903" d="M183.957,88.677c2.773,0,5.389-2.14,5.389-6.367,0-3.329-1.743-6.788-5.442-6.788-3.064,0-5.335,2.4-5.335,6.5C178.569,84.926,179.967,88.677,183.957,88.677Zm-.026-16.352c5.679,0,8.928,4.649,8.928,9.694,0,4.227-2.3,9.907-9.008,9.907-5.494,0-8.876-4.544-8.876-9.775,0-5.468,3.566-9.826,8.956-9.826Z" transform="translate(-71.769 -29.691)" fill="#fff"/>
      <path id="path2905" d="M224.711,91.781c0-.45.343-15.322.343-15.322l-4.041,15.322h-3.143L213.827,76.46s.343,14.713.343,15.322h-3.406V73.131h5.071l3.644,13.842,3.593-13.842h5.045v18.65h-3.407Z" transform="translate(-86.439 -30.021)" fill="#fff"/>
      <path id="path2907" d="M255.861,88.677c2.773,0,5.389-2.14,5.389-6.367,0-3.329-1.743-6.788-5.442-6.788-3.064,0-5.335,2.4-5.335,6.5C250.473,84.926,251.872,88.677,255.861,88.677Zm-.026-16.352c5.68,0,8.929,4.649,8.929,9.694,0,4.226-2.3,9.907-9.008,9.907-5.495,0-8.876-4.544-8.876-9.775,0-5.468,3.566-9.826,8.956-9.826Z" transform="translate(-101.243 -29.691)" fill="#fff"/>
      <path id="path2909" d="M298.877,84.675a10.271,10.271,0,0,1-.317,3.3c-.608,1.876-2.747,4.28-7.318,4.28-2.985,0-6.128-1.164-7.105-4.227a12.746,12.746,0,0,1-.29-3.8V73.131h3.513V84.6a5.917,5.917,0,0,0,.185,2.061c.343,1.109,1.347,2.218,3.83,2.218.451,0,3.012,0,3.778-2.113a6.62,6.62,0,0,0,.237-2.35V73.131h3.487Z" transform="translate(-116.396 -30.021)" fill="#fff"/>
      <path id="path2911" d="M331.347,86.247a8.445,8.445,0,0,1-8.057,5.68c-4.411,0-8.717-3.012-8.717-9.986,0-4.148,2.351-9.615,8.85-9.615,4.808,0,6.789,3.091,7.581,5.758l-3.46.9a3.9,3.9,0,0,0-3.989-3.46c-3.038,0-5.2,2.324-5.2,6.472,0,2.537,1.031,6.632,5.179,6.632a4.84,4.84,0,0,0,4.517-3.752l3.3,1.374Z" transform="translate(-128.992 -29.691)" fill="#fff"/>
    </g>
  </g>
</svg>
