<svg xmlns="http://www.w3.org/2000/svg" width="361.982" height="44.089" viewBox="0 0 361.982 44.089">
  <g id="ostrava_logo" transform="translate(-3.658 -1.3)">
    <g id="_00b2ddff" data-name="#00b2ddff" transform="translate(3.658 1.3)">
      <path id="Path_430" data-name="Path 430" d="M25.083,1.346A23.6,23.6,0,0,1,41.546,6.527a21.538,21.538,0,0,1,7.757,15.4A21.828,21.828,0,0,1,41.5,40.1c-8.458,7.122-22.034,7.056-30.375-.216a21.937,21.937,0,0,1-.191-32.789A23.191,23.191,0,0,1,25.083,1.346M25.024,12a10.272,10.272,0,0,0-5.7,2.642A12.24,12.24,0,0,0,17.06,28.909a10.664,10.664,0,0,0,17.367,2.447,12.288,12.288,0,0,0,.133-15.733A10.663,10.663,0,0,0,25.024,12Z" transform="translate(-3.658 -1.3)" fill="#00b2dd"/>
      <path id="Path_431" data-name="Path 431" d="M124.739,5.641c3.75-3.335,9.034-4.26,13.908-4.007a26.554,26.554,0,0,1,15.774,5.583q-2.943,4.15-5.882,8.3a21.876,21.876,0,0,0-11.979-4.169c-1.452.037-3.256.377-3.932,1.838a2.5,2.5,0,0,0,1.294,3.3c3.107,1.5,6.608,1.829,9.88,2.85,3.7,1.1,7.6,2.634,9.938,5.878,2.107,3,2.2,6.989,1.273,10.424a12.551,12.551,0,0,1-7.23,7.976c-5.177,2.273-11.083,2.19-16.534,1.074a28.742,28.742,0,0,1-12.7-6.209c2.124-2.667,4.368-5.239,6.541-7.864,4.164,3.277,9.428,5.413,14.791,5.031a5.408,5.408,0,0,0,2.995-1.054,2.453,2.453,0,0,0-.112-3.762,14.3,14.3,0,0,0-4.43-1.775c-4.235-1.066-8.644-1.887-12.44-4.156a10.432,10.432,0,0,1-4.65-5.347A13.072,13.072,0,0,1,124.739,5.641Z" transform="translate(-70.894 -1.473)" fill="#00b2dd"/>
      <path id="Path_432" data-name="Path 432" d="M213.94,3.346q18.591-.006,37.186,0c-.012,3.434.033,6.873-.025,10.308-4.227-.025-8.458-.008-12.688-.008-.012,10.7.008,21.4-.008,32.1-3.92-.012-7.835.008-11.751-.012q.006-16.04,0-32.088c-4.239-.012-8.478,0-12.717,0Q213.93,8.489,213.94,3.346Z" transform="translate(-126.713 -2.495)" fill="#00b2dd"/>
      <path id="Path_433" data-name="Path 433" d="M313.266,3.346q10.1-.006,20.209,0c3.986.033,8.138.66,11.535,2.87a12.556,12.556,0,0,1,5.529,8.2,15.027,15.027,0,0,1-2.248,11.888,15.185,15.185,0,0,1-6.114,4.671c3.356,4.928,6.744,9.826,10.084,14.762-4.521,0-9.042.008-13.559,0q-4.268-6.421-8.541-12.834c-1.713,0-3.426,0-5.139,0-.008,4.276,0,8.553,0,12.834q-5.873.006-11.751,0-.006-21.2,0-42.4m11.755,10.179q-.006,5.083,0,10.166c2.684,0,5.367.021,8.051-.008,2.045-.029,4.372-.718,5.417-2.63a5.142,5.142,0,0,0-.983-6.143,7.641,7.641,0,0,0-4.861-1.39Q328.837,13.514,325.021,13.525Z" transform="translate(-184.842 -2.495)" fill="#00b2dd"/>
      <path id="Path_434" data-name="Path 434" d="M412.55,45.308Q421.578,23.961,430.6,2.614c3.77-.008,7.545,0,11.315,0q9.053,21.341,18.056,42.7-6.3,0-12.6,0c-1.033-2.522-2.053-5.048-3.094-7.566-5.45,0-10.9-.008-16.351.008q-1.506,3.783-3.024,7.557c-4.119,0-8.238.012-12.357,0m18.844-16.72q4.747.012,9.5,0c-1.568-4.015-3.148-8.022-4.712-12.037C434.567,20.562,432.987,24.577,431.394,28.588Z" transform="translate(-242.946 -2.067)" fill="#00b2dd"/>
      <path id="Path_435" data-name="Path 435" d="M516.22,3.348c4.38-.012,8.756,0,13.136-.008,3.231,8.93,6.413,17.882,9.644,26.816q4.816-13.408,9.627-26.812c4.3,0,8.6-.012,12.9,0q-8.611,21.347-17.21,42.694c-3.629,0-7.263,0-10.892,0Q524.806,24.7,516.22,3.348Z" transform="translate(-303.615 -2.493)" fill="#00b2dd"/>
      <path id="Path_436" data-name="Path 436" d="M632.831,2.614c3.8.008,7.6-.066,11.4.037C650.157,16.9,656.246,31.077,662.215,45.3c-4.2,0-8.4.008-12.6,0-1.02-2.518-2.062-5.027-3.069-7.549-5.446-.046-10.892.012-16.334-.029-1.066,2.509-2.032,5.056-3.061,7.582q-6.178.006-12.352,0,9-21.353,18.031-42.69m.809,25.97c3.165,0,6.326,0,9.49,0q-2.339-6-4.7-12C636.78,20.562,635.237,24.586,633.64,28.584Z" transform="translate(-361.305 -2.058)" fill="#00b2dd"/>
    </g>
    <g id="_00345fff" data-name="#00345fff" transform="translate(311.082 1.954)">
      <path id="Path_437" data-name="Path 437" d="M745.32,2.935c3.945-.12,7.9-.017,11.851-.05q-.143,12.867-.29,25.742-5.625,0-11.245,0C745.519,20.062,745.478,11.5,745.32,2.935Z" transform="translate(-745.111 -2.875)" fill="#00345f"/>
      <path id="Path_438" data-name="Path 438" d="M796.31,2.91c3.94-.041,7.885-.008,11.83-.017Q808,15.76,807.854,28.635q-5.625,0-11.249,0C796.5,20.057,796.426,11.484,796.31,2.91Z" transform="translate(-774.951 -2.883)" fill="#00345f"/>
      <path id="Path_439" data-name="Path 439" d="M847.26,2.9q5.911-.006,11.826,0-.143,12.873-.29,25.742H847.55Q847.4,15.764,847.26,2.9Z" transform="translate(-804.767 -2.885)" fill="#00345f"/>
      <path id="Path_440" data-name="Path 440" d="M748.77,76.926a6.131,6.131,0,1,1-3.675,7.5A6.164,6.164,0,0,1,748.77,76.926Z" transform="translate(-744.816 -45.964)" fill="#00345f"/>
      <path id="Path_441" data-name="Path 441" d="M799.75,76.914a6.129,6.129,0,1,1-3.758,7.342A6.163,6.163,0,0,1,799.75,76.914Z" transform="translate(-774.629 -45.964)" fill="#00345f"/>
      <path id="Path_442" data-name="Path 442" d="M850.71,76.908a6.129,6.129,0,1,1-3.8,7.325A6.167,6.167,0,0,1,850.71,76.908Z" transform="translate(-804.434 -45.967)" fill="#00345f"/>
    </g>
  </g>
</svg>
