<svg xmlns="http://www.w3.org/2000/svg" width="325.833" height="64.284" viewBox="0 0 325.833 64.284">
  <g id="plzen_logo" transform="translate(0 0)">
    <g id="Group_49" data-name="Group 49" transform="translate(152.268 0)">
      <path id="Path_420" data-name="Path 420" d="M14.864-34.526-17.246-2.384,14.864,29.757H156.319V-34.526Z" transform="translate(17.246 34.526)" fill="#1fa22e"/>
    </g>
    <g id="Group_50" data-name="Group 50" transform="translate(192.439 16.046)">
      <path id="Path_421" data-name="Path 421" d="M8.624.828c0-2.885-2.317-4.776-5.816-4.776H-2.015V6.029H2.809c3.5,0,5.816-2.033,5.816-5.2m7.944,0c0,7.519-5.485,12.2-14.234,12.2h-4.35v8.181h-7.992V-10.946H2.95c8.417,0,13.618,4.54,13.618,11.774" transform="translate(10.006 10.946)" fill="#fff"/>
    </g>
    <g id="Group_51" data-name="Group 51" transform="translate(230.22 48.2) rotate(180)">
      <rect id="Rectangle_23" data-name="Rectangle 23" width="7.709" height="33.572" transform="translate(0)" fill="#fff"/>
    </g>
    <g id="Group_52" data-name="Group 52" transform="translate(234.237 25.267)">
      <path id="Path_422" data-name="Path 422" d="M9.894-6.067-.509,6.464h10.4V12.8H-11.48V9.065L-.7-3.749H-11.29v-6.384H9.894Z" transform="translate(11.48 10.133)" fill="#fff"/>
    </g>
    <g id="Group_53" data-name="Group 53" transform="translate(258.116 24.652)">
      <path id="Path_423" data-name="Path 423" d="M3.371,1.631h9.505C12.5-1.064,10.842-2.2,8.241-2.2a4.7,4.7,0,0,0-4.87,3.83m16.5,4.4H3.276a4.937,4.937,0,0,0,5.2,4.209c1.7,0,2.7-.379,3.4-1.229h7.756C18.267,13.5,14.01,16.29,8.62,16.29,1.1,16.29-3.911,11.183-3.911,4.185c0-6.951,4.87-12.058,11.964-12.058,6.857,0,11.964,4.351,11.964,11.3a16,16,0,0,1-.142,2.6" transform="translate(3.911 7.873)" fill="#fff"/>
    </g>
    <g id="Group_54" data-name="Group 54" transform="translate(285.776 14.534)">
      <path id="Path_424" data-name="Path 424" d="M3.721-6.454l-5.486-7.565H4.951L7.456-10.9l2.412-3.12h6.715L11.1-6.454Zm15.7,13v13.1H11.76V7.779c0-3.262-1.655-4.728-4.209-4.728A5.758,5.758,0,0,0,3.39,5.225V19.648H-4.318V-3.286H3.39v1.513A10.1,10.1,0,0,1,9.679-3.9C15.448-3.9,19.42.024,19.42,6.55" transform="translate(4.318 14.019)" fill="#fff"/>
    </g>
    <g id="Group_55" data-name="Group 55" transform="translate(0 16.047)">
      <path id="Path_425" data-name="Path 425" d="M16.067,32.154H8.075V16.029L.935,27.047v.048H-3.51v-.048L-10.7,15.935l.048,16.219h-7.992V0h5.959l11.4,17.164L10.108,0h5.959Z" transform="translate(18.641)" fill="#fab700"/>
    </g>
    <g id="Group_56" data-name="Group 56" transform="translate(39.103 14.533)">
      <path id="Path_426" data-name="Path 426" d="M3.371,11.75h9.5c-.379-2.7-2.033-3.83-4.634-3.83a4.7,4.7,0,0,0-4.87,3.83M4.6-.308-.885-7.873H5.83l2.506,3.12,2.411-3.12h6.715L11.977-.308ZM19.873,16.147H3.277a4.935,4.935,0,0,0,5.2,4.209c1.7,0,2.7-.379,3.4-1.229h7.756c-1.372,4.491-5.627,7.282-11.018,7.282C1.1,26.409-3.911,21.3-3.911,14.3c0-6.951,4.87-12.058,11.963-12.058,6.857,0,11.964,4.351,11.964,11.3a16,16,0,0,1-.142,2.6" transform="translate(3.911 7.873)" fill="#fab700"/>
    </g>
    <g id="Group_57" data-name="Group 57" transform="translate(65.487 24.653)">
      <path id="Path_427" data-name="Path 427" d="M5.253,15.514c2.033,0,3.31-.568,3.31-1.56,0-.8-.9-1.371-2.412-1.608l-4.633-.8C-2.406,10.88-5.2,8.657-5.2,4.639c0-4.824,4.114-7.661,10.213-7.661,5.438,0,10.356,1.844,10.687,7.9H8.942c-.142-1.7-1.8-2.459-3.926-2.459-1.985,0-2.883.71-2.883,1.561,0,.8.567,1.513,2.411,1.844L8.8,6.53c4.255.8,7.14,2.885,7.14,6.95,0,5.3-4.728,7.661-10.735,7.661-5.91,0-10.781-2.411-11.3-8.511l6.809.048c.331,1.985,2.127,2.837,4.539,2.837" transform="translate(6.095 3.022)" fill="#fab700"/>
    </g>
    <g id="Group_58" data-name="Group 58" transform="translate(89.411 17.465)">
      <path id="Path_428" data-name="Path 428" d="M9.566,29.606a16.338,16.338,0,0,1-6.147,1.135c-6.242,0-10.025-4.067-10.025-10.262V13.765H-11.1V7.193h4.492V-.61H1.055v7.8h7.8v6.572h-7.8v6.479c0,2.364,1.371,3.452,3.593,3.452a11.091,11.091,0,0,0,4.066-.946Z" transform="translate(11.098 0.61)" fill="#fab700"/>
    </g>
    <g id="Group_59" data-name="Group 59" transform="translate(112.106 24.652)">
      <path id="Path_429" data-name="Path 429" d="M8.34,5.629A5.37,5.37,0,0,0,2.949-.045,5.38,5.38,0,0,0-2.489,5.629,5.328,5.328,0,0,0,2.949,11.3c3.216,0,5.391-2.412,5.391-5.674m7.188-.048c0,7-5.344,12.105-12.578,12.105-7.282,0-12.626-5.107-12.626-12.105,0-6.9,5.344-12.058,12.626-12.058,7.234,0,12.578,5.155,12.578,12.058" transform="translate(9.676 6.476)" fill="#fab700"/>
    </g>
  </g>
</svg>
