<svg xmlns="http://www.w3.org/2000/svg" width="109.203" height="109.207" viewBox="0 0 109.203 109.207">
  <g id="praha_logo" transform="translate(-11.542 245.445)">
    <g id="g12" transform="translate(11.542 -245.445)">
      <path id="path16" d="M11.542-245.443H65.036v109.206H11.542V-245.443" transform="translate(-11.542 245.444)" fill="#c81429" fill-rule="evenodd"/>
      <path id="path18" d="M130.673-245.445h53.586v109.207H130.673V-245.445" transform="translate(-75.056 245.445)" fill="#c81429" fill-rule="evenodd"/>
      <path id="path20" d="M37.457-216.214a5.828,5.828,0,0,1-1.137-.1V-220.9a8.588,8.588,0,0,1,1.326-.1c1.044,0,2.794.3,2.794,2.3,0,1.582-1.087,2.488-2.983,2.488Zm3.913-5.45a5.5,5.5,0,0,0-3.76-1.128,17.5,17.5,0,0,0-3.231.271l-.194.037v13.117H36.32v-5.112a7.321,7.321,0,0,0,1.1.075,5.639,5.639,0,0,0,4.1-1.481,4.083,4.083,0,0,0,1.078-2.914,3.705,3.705,0,0,0-1.224-2.866" transform="translate(-23.614 233.368)" fill="#ffe100" fill-rule="evenodd"/>
      <path id="path22" d="M68.618-218.874c0,1.338-1.044,2.2-2.659,2.2H64.5v-4.241a7.6,7.6,0,0,1,1.4-.107C67.142-221.02,68.618-220.647,68.618-218.874Zm1.615,5.686a3.7,3.7,0,0,0-1.667-2.564,3.58,3.58,0,0,0,2.207-3.294,3.448,3.448,0,0,0-1.092-2.618,5.549,5.549,0,0,0-3.895-1.128,17.483,17.483,0,0,0-3.23.291l-.191.039v13.1H64.5v-5.569h1.324c1.359,0,2,.626,2.361,2.31a14.774,14.774,0,0,0,.866,3.14l.068.12h2.241l-.175-.345a24.076,24.076,0,0,1-.953-3.477" transform="translate(-38.638 233.368)" fill="#ffe100" fill-rule="evenodd"/>
      <path id="path24" d="M97.513-215.083h-3.2c.177-.527,1.152-3.4,1.152-3.4.179-.527.3-1.058.429-1.589.123.441.453,1.608.453,1.608s.869,2.51,1.169,3.384ZM94.779-222.6l-4.528,13.331h2.22s1.235-3.742,1.334-4.044h4.215l1.372,4.044h2.279L97.122-222.6H94.779" transform="translate(-53.505 233.264)" fill="#ffe100" fill-rule="evenodd"/>
      <path id="path26" d="M151.584-209.266v-6.026h-5.741v6.026h-2.154V-222.6h2.154v5.378h5.741V-222.6h2.154v13.331h-2.154" transform="translate(-81.995 233.264)" fill="#ffe100" fill-rule="evenodd"/>
      <path id="path28" d="M183.349-215.083h-3.2c.177-.527,1.152-3.4,1.152-3.4.182-.532.3-1.061.429-1.59l.454,1.61s.868,2.51,1.168,3.384Zm-2.733-7.514-4.53,13.331h2.222s1.236-3.742,1.333-4.044h4.217c.1.3,1.373,4.044,1.373,4.044h2.279L182.959-222.6h-2.344" transform="translate(-99.267 233.264)" fill="#ffe100" fill-rule="evenodd"/>
      <path id="path30" d="M37.457-164.808a5.75,5.75,0,0,1-1.137-.1V-169.5a8.528,8.528,0,0,1,1.326-.1c1.044,0,2.794.3,2.794,2.3C40.439-165.716,39.352-164.808,37.457-164.808Zm3.913-5.453a5.508,5.508,0,0,0-3.76-1.127,17.383,17.383,0,0,0-3.231.273l-.194.036v13.117H36.32v-5.113a7.081,7.081,0,0,0,1.1.078,5.647,5.647,0,0,0,4.1-1.482,4.081,4.081,0,0,0,1.078-2.913,3.713,3.713,0,0,0-1.224-2.868" transform="translate(-23.614 205.962)" fill="#ffe100" fill-rule="evenodd"/>
      <path id="path32" d="M68.618-167.47c0,1.338-1.044,2.2-2.659,2.2H64.5v-4.242a7.7,7.7,0,0,1,1.4-.106C67.142-169.615,68.618-169.243,68.618-167.47Zm1.615,5.684a3.694,3.694,0,0,0-1.665-2.561,3.584,3.584,0,0,0,2.2-3.294,3.455,3.455,0,0,0-1.092-2.621,5.558,5.558,0,0,0-3.895-1.127,17.48,17.48,0,0,0-3.23.291l-.191.039v13.1H64.5v-5.567h1.324c1.359,0,2,.626,2.361,2.308a14.738,14.738,0,0,0,.866,3.139l.068.121h2.241l-.175-.346a23.936,23.936,0,0,1-.953-3.476" transform="translate(-38.638 205.962)" fill="#ffe100" fill-rule="evenodd"/>
      <path id="path34" d="M97.513-163.676h-3.2c.177-.527,1.152-3.4,1.152-3.4.178-.523.3-1.056.429-1.588.123.436.453,1.607.453,1.607S97.214-164.548,97.513-163.676Zm-2.735-7.512-4.528,13.328h2.22l1.334-4.044h4.215l1.372,4.044h2.279l-4.55-13.328H94.779" transform="translate(-53.505 205.855)" fill="#ffe100" fill-rule="evenodd"/>
      <path id="path36" d="M148.352-163.428h2.591V-160a5.827,5.827,0,0,1-1.973.271c-2.909,0-4.718-1.9-4.718-4.948a4.572,4.572,0,0,1,4.928-4.929,6.255,6.255,0,0,1,2.741.529l.25.117.56-1.812-.184-.089a8.336,8.336,0,0,0-3.328-.614c-4.306,0-7.2,2.763-7.2,6.874a6.864,6.864,0,0,0,1.863,4.958,6.838,6.838,0,0,0,4.973,1.763,11.888,11.888,0,0,0,4.052-.72l.153-.06v-6.58h-4.71v1.812" transform="translate(-81.106 206.009)" fill="#ffe100" fill-rule="evenodd"/>
      <path id="path38" d="M177.9-171.2v7.809c0,3.694,1.722,5.73,4.851,5.73,3.242,0,5.1-2.108,5.1-5.787V-171.2H185.7v7.868c0,2.512-1,3.841-2.89,3.841-1.776,0-2.754-1.364-2.754-3.841V-171.2H177.9" transform="translate(-100.237 205.864)" fill="#ffe100" fill-rule="evenodd"/>
      <path id="path40" d="M220.313-159.728v1.869h-7.726v-13.328h7.439v1.867h-5.282v3.585h4.977v1.849h-4.977v4.158h5.568" transform="translate(-118.728 205.855)" fill="#ffe100" fill-rule="evenodd"/>
      <path id="path42" d="M37.457-113.415a5.888,5.888,0,0,1-1.137-.1V-118.1a8.577,8.577,0,0,1,1.326-.1c1.044,0,2.794.3,2.794,2.3C40.439-114.32,39.352-113.415,37.457-113.415Zm3.913-5.451a5.5,5.5,0,0,0-3.76-1.127,17.381,17.381,0,0,0-3.231.271l-.194.038v13.117H36.32v-5.112a7.45,7.45,0,0,0,1.1.077,5.643,5.643,0,0,0,4.1-1.484A4.078,4.078,0,0,0,42.594-116a3.711,3.711,0,0,0-1.224-2.867" transform="translate(-23.614 178.561)" fill="#ffe100" fill-rule="evenodd"/>
      <path id="path44" d="M68.618-116.075c0,1.339-1.044,2.2-2.659,2.2H64.5v-4.242a7.582,7.582,0,0,1,1.4-.108C67.142-118.221,68.618-117.848,68.618-116.075Zm1.615,5.685a3.694,3.694,0,0,0-1.667-2.563,3.583,3.583,0,0,0,2.207-3.294,3.451,3.451,0,0,0-1.092-2.62,5.557,5.557,0,0,0-3.895-1.127,17.579,17.579,0,0,0-3.232.29l-.19.041v13.094H64.5v-5.569h1.324c1.359,0,2,.626,2.361,2.309a14.808,14.808,0,0,0,.866,3.14l.068.119h2.241l-.175-.347a23.975,23.975,0,0,1-.953-3.475" transform="translate(-38.638 178.561)" fill="#ffe100" fill-rule="evenodd"/>
      <path id="path46" d="M97.513-112.283h-3.2c.177-.527,1.152-3.4,1.152-3.4.179-.523.3-1.057.429-1.587.123.44.453,1.607.453,1.607S97.214-113.155,97.513-112.283ZM94.779-119.8l-4.528,13.33h2.22l1.334-4.042h4.215c.1.3,1.372,4.042,1.372,4.042h2.279l-4.55-13.33H94.779" transform="translate(-53.505 178.456)" fill="#ffe100" fill-rule="evenodd"/>
      <path id="path48" d="M148.352-112.032h2.591v3.431a5.914,5.914,0,0,1-1.973.268c-2.909,0-4.718-1.9-4.718-4.947a4.573,4.573,0,0,1,4.928-4.929,6.249,6.249,0,0,1,2.741.528l.25.118.56-1.812-.187-.09a8.34,8.34,0,0,0-3.325-.612c-4.306,0-7.2,2.761-7.2,6.874a6.865,6.865,0,0,0,1.863,4.956,6.837,6.837,0,0,0,4.973,1.765,11.833,11.833,0,0,0,4.052-.722l.153-.058v-6.581h-4.71v1.812" transform="translate(-81.106 178.606)" fill="#ffe100" fill-rule="evenodd"/>
      <path id="path50" d="M183.278-112.283h-3.2c.177-.527,1.153-3.4,1.153-3.4.175-.513.312-1.029.441-1.548.131.467.442,1.568.442,1.568S182.978-113.155,183.278-112.283Zm-2.732-7.514-4.529,13.33h2.222s1.233-3.741,1.334-4.042h4.216c.1.3,1.371,4.042,1.371,4.042h2.279l-4.547-13.33h-2.345" transform="translate(-99.231 178.456)" fill="#ffe100" fill-rule="evenodd"/>
      <path id="path52" d="M37.457-62.017a5.818,5.818,0,0,1-1.137-.1v-4.595a8.562,8.562,0,0,1,1.326-.1c1.044,0,2.794.3,2.794,2.3,0,1.581-1.087,2.488-2.983,2.488Zm3.913-5.451a5.494,5.494,0,0,0-3.76-1.128,17.52,17.52,0,0,0-3.231.271l-.194.037V-55.17H36.32v-5.115a7.232,7.232,0,0,0,1.1.079,5.642,5.642,0,0,0,4.1-1.482A4.082,4.082,0,0,0,42.594-64.6a3.706,3.706,0,0,0-1.224-2.866" transform="translate(-23.614 151.159)" fill="#ffe100" fill-rule="evenodd"/>
      <path id="path54" d="M68.618-64.678c0,1.339-1.044,2.2-2.659,2.2H64.5v-4.242a7.619,7.619,0,0,1,1.4-.106C67.142-66.823,68.618-66.451,68.618-64.678Zm1.615,5.686a3.689,3.689,0,0,0-1.667-2.563,3.584,3.584,0,0,0,2.207-3.294,3.445,3.445,0,0,0-1.092-2.619A5.55,5.55,0,0,0,65.787-68.6a17.374,17.374,0,0,0-3.23.291l-.191.038v13.1H64.5v-5.57h1.324c1.359,0,2,.627,2.361,2.311a14.976,14.976,0,0,0,.866,3.14l.068.119h2.241l-.175-.345a24.15,24.15,0,0,1-.953-3.477" transform="translate(-38.638 151.159)" fill="#ffe100" fill-rule="evenodd"/>
      <path id="path56" d="M97.513-60.885h-3.2c.177-.528,1.152-3.4,1.152-3.4.179-.526.3-1.058.429-1.589.123.44.453,1.607.453,1.607S97.214-61.758,97.513-60.885ZM94.779-68.4,90.251-55.069h2.22l1.334-4.043h4.215l1.372,4.043h2.279L97.122-68.4H94.779" transform="translate(-53.505 151.053)" fill="#ffe100" fill-rule="evenodd"/>
      <path id="path58" d="M148.352-60.637h2.591v3.43a5.834,5.834,0,0,1-1.973.269c-2.909,0-4.718-1.895-4.718-4.948a4.571,4.571,0,0,1,4.928-4.929,6.227,6.227,0,0,1,2.741.53l.25.116.56-1.811-.184-.091a8.344,8.344,0,0,0-3.328-.614c-4.306,0-7.2,2.762-7.2,6.876a6.864,6.864,0,0,0,1.863,4.955,6.839,6.839,0,0,0,4.973,1.765,11.863,11.863,0,0,0,4.052-.721l.153-.06v-6.58h-4.71v1.811" transform="translate(-81.106 151.205)" fill="#ffe100" fill-rule="evenodd"/>
    </g>
  </g>
</svg>
